HIERARCHY
ROOT root
{
	OFFSET 0.000000 0.000000 0.000000
	CHANNELS 6 Xposition Yposition Zposition Zrotation Yrotation Xrotation
	JOINT lhip
	{
		OFFSET 0.058581 -0.082280 -0.017664
		CHANNELS 3 Zrotation Yrotation Xrotation
		JOINT lknee
		{
			OFFSET 0.043451 -0.386469 0.008037
			CHANNELS 3 Zrotation Yrotation Xrotation
			JOINT lankle
			{
				OFFSET -0.014790 -0.426874 -0.037428
				CHANNELS 3 Zrotation Yrotation Xrotation
				JOINT ltoe
				{
					OFFSET 0.041054 -0.060286 0.122042
					CHANNELS 3 Zrotation Yrotation Xrotation
					End Site
					{
						OFFSET 0.000000 0.000000 0.000000
					}
				}
			}
		}
	}
	JOINT rhip
	{
		OFFSET -0.060310 -0.090513 -0.013543
		CHANNELS 3 Zrotation Yrotation Xrotation
		JOINT rknee
		{
			OFFSET -0.043257 -0.383688 -0.004843
			CHANNELS 3 Zrotation Yrotation Xrotation
			JOINT rankle
			{
				OFFSET 0.019056 -0.420046 -0.034562
				CHANNELS 3 Zrotation Yrotation Xrotation
				JOINT rtoe
				{
					OFFSET -0.034840 -0.062106 0.130323
					CHANNELS 3 Zrotation Yrotation Xrotation
					End Site
					{
						OFFSET 0.000000 0.000000 0.000000
					}
				}
			}
		}
	}
	JOINT lowerback
	{
		OFFSET 0.004439 0.124404 -0.038385
		CHANNELS 3 Zrotation Yrotation Xrotation
		JOINT upperback
		{
			OFFSET 0.004488 0.137956 0.026820
			CHANNELS 3 Zrotation Yrotation Xrotation
			JOINT chest
			{
				OFFSET -0.002265 0.056032 0.002855
				CHANNELS 3 Zrotation Yrotation Xrotation
				JOINT lowerneck
				{
					OFFSET -0.013390 0.211636 -0.033468
					CHANNELS 3 Zrotation Yrotation Xrotation
					JOINT upperneck
					{
						OFFSET 0.010113 0.088937 0.050410
						CHANNELS 3 Zrotation Yrotation Xrotation
						End Site
						{
							OFFSET 0.000000 0.000000 0.000000
						}
					}
				}
				JOINT lclavicle
				{
					OFFSET 0.071702 0.114000 -0.018898
					CHANNELS 3 Zrotation Yrotation Xrotation
					JOINT lshoulder
					{
						OFFSET 0.122921 0.045205 -0.019046
						CHANNELS 3 Zrotation Yrotation Xrotation
						JOINT lelbow
						{
							OFFSET 0.255332 -0.015649 -0.022946
							CHANNELS 3 Zrotation Yrotation Xrotation
							JOINT lwrist
							{
								OFFSET 0.265709 0.012698 -0.007375
								CHANNELS 3 Zrotation Yrotation Xrotation
								End Site
								{
									OFFSET 0.000000 0.000000 0.000000
								}
							}
						}
					}
				}
				JOINT rclavicle
				{
					OFFSET -0.082954 0.112472 -0.023707
					CHANNELS 3 Zrotation Yrotation Xrotation
					JOINT rshoulder
					{
						OFFSET -0.113228 0.046853 -0.008472
						CHANNELS 3 Zrotation Yrotation Xrotation
						JOINT relbow
						{
							OFFSET -0.260127 -0.014369 -0.031269
							CHANNELS 3 Zrotation Yrotation Xrotation
							JOINT rwrist
							{
								OFFSET -0.269108 0.006794 -0.006027
								CHANNELS 3 Zrotation Yrotation Xrotation
								End Site
								{
									OFFSET 0.000000 0.000000 0.000000
								}
							}
						}
					}
				}
			}
		}
	}
}
MOTION
Frames: 16
Frame Time: 0.033333
0.359136 0.149563 0.998760 85.085031 -0.193329 90.247498 4.750282 5.278066 5.511691 -3.784361 -0.178433 -5.477298 0.993222 9.161631 -3.563185 0.000000 -0.000000 0.000000 -6.140157 -4.027024 1.071450 2.207586 -1.755847 0.703585 4.867703 -4.525427 -6.252768 0.000000 -0.000000 0.000000 -4.474357 3.361311 -7.456979 2.434329 -2.345569 13.682425 0.051258 1.654031 -5.528358 1.190963 6.535031 4.664370 3.594994 -1.360899 -6.439522 -27.528305 -4.113340 -0.311674 -55.364974 -4.852468 18.901483 -0.271205 -20.243784 8.797941 -8.136529 -13.528949 12.092643 30.235644 7.569300 7.462123 54.258120 1.929578 14.788511 -10.304421 25.357801 -5.310952 2.126338 12.358682 2.136132 
0.359164 0.149574 0.998723 85.091450 -0.189773 90.243802 4.750694 5.269968 5.517253 -3.780294 -0.185755 -5.473893 0.976431 9.164653 -3.567893 0.000000 -0.000000 0.000000 -6.135968 -4.020284 1.085736 2.201643 -1.744938 0.691645 4.874352 -4.550617 -6.258885 0.000000 -0.000000 0.000000 -4.473278 3.344671 -7.426498 2.407901 -2.331430 13.609792 0.056978 1.656431 -5.473212 1.176032 6.492933 4.585549 3.593965 -1.399440 -6.341879 -27.491355 -4.128317 -0.296432 -55.398624 -4.861167 18.866316 -0.272891 -20.244331 8.835824 -8.144900 -13.522110 12.081013 30.202813 7.568059 7.477230 54.305506 1.952668 14.779116 -10.318228 25.324108 -5.305368 2.162291 12.336319 2.114381 
0.359246 0.149539 0.998720 85.104298 -0.185083 90.240004 4.760230 5.263505 5.523115 -3.778784 -0.193468 -5.469403 0.958139 9.163292 -3.568551 0.000000 -0.000000 0.000000 -6.124675 -4.012956 1.108441 2.192686 -1.736673 0.672307 4.882288 -4.579041 -6.263647 0.000000 -0.000000 0.000000 -4.475398 3.331927 -7.390039 2.381526 -2.316986 13.534419 0.061158 1.658744 -5.422966 1.169064 6.461432 4.513529 3.594701 -1.428038 -6.244396 -27.452905 -4.142592 -0.282478 -55.431058 -4.864629 18.839013 -0.274128 -20.252111 8.883256 -8.140383 -13.509286 12.068948 30.169731 7.574157 7.490537 54.351071 1.982182 14.775643 -10.334027 25.295135 -5.293993 2.199548 12.310410 2.084322 
0.359206 0.149404 0.998558 85.140297 -0.166708 90.254606 4.793095 5.226389 5.488913 -3.782918 -0.202008 -5.451957 0.894200 9.158778 -3.557400 0.000000 -0.000000 0.000000 -6.080618 -3.959237 1.120549 2.166462 -1.726253 0.630585 4.941811 -4.659581 -6.238792 0.000000 -0.000000 0.000000 -4.440628 3.261113 -7.207699 2.278157 -2.279486 13.187324 0.104242 1.713023 -5.203183 1.155967 6.386541 4.187474 3.596480 -1.386308 -5.953993 -27.236086 -4.254870 -0.291089 -55.651753 -4.824693 18.672675 -0.281494 -20.332569 9.149062 -8.008217 -13.352113 12.203490 29.980422 7.602343 7.584901 54.628837 2.082017 14.713144 -10.603888 25.553633 -5.337635 1.377292 12.666870 2.420327 
0.359209 0.149371 0.998549 85.141125 -0.153286 90.255452 4.807230 5.221948 5.484377 -3.781561 -0.212645 -5.446879 0.907904 9.162286 -3.546246 0.000000 -0.000000 0.000000 -6.059925 -3.957528 1.118021 2.160681 -1.714675 0.631839 4.939958 -4.669957 -6.252537 0.000000 -0.000000 0.000000 -4.436370 3.256943 -7.171328 2.276732 -2.285133 13.145127 0.125584 1.711670 -5.174210 1.253821 6.482889 4.200928 3.526172 -1.147873 -5.964099 -27.243200 -4.247110 -0.319749 -55.672765 -4.834525 18.648908 -0.281649 -20.328520 9.194865 -8.042283 -13.318121 12.202572 29.898534 7.596456 7.573419 54.701143 2.106874 14.744023 -10.603594 25.588404 -5.294332 1.381282 12.627909 2.435572 
0.359233 0.149359 0.998561 85.150726 -0.144906 90.281035 4.815628 5.222971 5.460770 -3.781460 -0.211820 -5.452761 0.894338 9.163116 -3.546514 0.000000 -0.000000 0.000000 -6.043510 -3.958402 1.093854 2.156888 -1.705381 0.628703 4.962902 -4.711321 -6.269548 0.000000 -0.000000 0.000000 -4.450592 3.247367 -7.122483 2.267555 -2.262313 13.006495 0.127960 1.702832 -5.131828 1.179002 6.356276 4.164698 3.555372 -1.357898 -5.880262 -27.215293 -4.219146 -0.300106 -55.699331 -4.886789 18.649213 -0.296455 -20.267363 9.256840 -8.167752 -13.354780 12.165256 29.890358 7.565872 7.548445 54.711922 2.094791 14.778713 -10.534896 25.517314 -5.171964 1.589200 12.502742 2.367646 
0.359264 0.149393 0.998574 85.146612 -0.129553 90.289320 4.832339 5.210889 5.456771 -3.789101 -0.203005 -5.460262 0.900571 9.171103 -3.534007 0.000000 -0.000000 0.000000 -6.032361 -3.953262 1.093151 2.168081 -1.718417 0.609276 4.963394 -4.697451 -6.236834 0.000000 -0.000000 0.000000 -4.453568 3.223620 -7.022336 2.248446 -2.244541 12.799330 0.146613 1.732637 -5.098944 1.082749 6.302164 4.248907 3.617512 -1.431502 -5.952758 -27.192625 -4.217067 -0.237654 -55.757228 -4.878427 18.606370 -0.249929 -20.251639 9.296742 -8.263165 -13.351134 12.136216 29.820982 7.580094 7.569144 54.779025 2.054375 14.780934 -10.566983 25.521241 -5.052974 1.821358 12.474272 2.275952 
0.359269 0.149413 0.998567 85.145947 -0.122507 90.320097 4.828733 5.202395 5.412014 -3.779061 -0.186878 -5.445674 0.912226 9.181126 -3.551879 0.000000 -0.000000 0.000000 -6.015607 -3.944860 1.073626 2.155923 -1.715664 0.575656 4.965121 -4.716488 -6.232642 0.000000 -0.000000 0.000000 -4.454422 3.227391 -6.993658 2.236482 -2.256005 12.727351 0.125666 1.734273 -5.129248 1.066808 6.277698 4.242456 3.657849 -1.472755 -5.817414 -27.160985 -4.192680 -0.241096 -55.791770 -4.860545 18.640318 -0.237959 -20.227670 9.285614 -8.188914 -13.319916 12.119742 29.814154 7.557547 7.564862 54.829599 2.021090 14.817878 -10.610880 25.659461 -5.110229 1.602699 12.581705 2.210995 
0.359220 0.149391 0.998563 85.141963 -0.111310 90.332932 4.841759 5.202450 5.392455 -3.781536 -0.178646 -5.446931 0.917694 9.186321 -3.538220 0.000000 -0.000000 0.000000 -5.994248 -3.940854 1.056096 2.144508 -1.706643 0.576570 4.995297 -4.730178 -6.240310 0.000000 -0.000000 0.000000 -4.462201 3.232384 -6.984417 2.230549 -2.254899 12.706977 0.123112 1.726830 -5.114514 1.084519 6.281195 4.189466 3.667480 -1.526881 -5.647332 -27.158107 -4.188280 -0.235319 -55.773624 -4.897588 18.648004 -0.268605 -20.214552 9.302111 -8.117555 -13.306705 12.054446 29.821346 7.548451 7.557061 54.818863 2.058461 14.843602 -10.582817 25.690790 -5.119239 1.500607 12.592992 2.138321 
0.359205 0.149407 0.998544 85.151890 -0.099548 90.334375 4.844307 5.190265 5.386574 -3.763555 -0.197691 -5.435346 0.912174 9.193109 -3.556541 0.000000 -0.000000 0.000000 -5.994023 -3.953560 1.047040 2.169289 -1.720258 0.593738 4.972321 -4.729245 -6.252547 0.000000 -0.000000 0.000000 -4.478426 3.224298 -6.951827 2.228184 -2.262566 12.658961 0.160226 1.722782 -5.055379 1.262376 6.465044 4.178145 3.559728 -1.177588 -5.526943 -27.158323 -4.179173 -0.263271 -55.804199 -4.922199 18.643785 -0.285070 -20.224020 9.365018 -8.019276 -13.298320 11.987215 29.737516 7.553548 7.587945 54.882170 2.172570 14.854291 -10.612645 25.648987 -5.119183 1.338953 12.586528 2.152861 
0.359209 0.149428 0.998564 85.156179 -0.107691 90.335770 4.837809 5.196983 5.388140 -3.764378 -0.217672 -5.439930 0.914191 9.175171 -3.542195 0.000000 -0.000000 0.000000 -5.995332 -3.941447 1.047843 2.153686 -1.735157 0.589640 4.985542 -4.735870 -6.250549 0.000000 -0.000000 0.000000 -4.489748 3.228603 -6.910453 2.210709 -2.242837 12.611062 0.131224 1.723605 -5.054272 1.146187 6.329721 4.209261 3.604404 -1.421413 -5.628013 -27.123699 -4.208006 -0.248859 -55.801637 -4.922605 18.665249 -0.261037 -20.237061 9.365098 -8.108151 -13.305892 12.037052 29.729024 7.582655 7.587753 54.951927 2.104089 14.848711 -10.650907 25.688836 -5.109413 1.445705 12.556954 2.102162 
0.359236 0.149394 0.998556 85.148408 -0.081848 90.333263 4.876748 5.198433 5.392892 -3.780150 -0.213336 -5.432906 0.911742 9.182123 -3.552625 0.000000 -0.000000 0.000000 -5.968778 -3.946689 1.037318 2.155944 -1.694390 0.623235 4.982787 -4.726536 -6.255443 0.000000 -0.000000 0.000000 -4.461867 3.226480 -6.833904 2.192273 -2.216326 12.501160 0.130449 1.705245 -5.007647 1.066556 6.262829 4.133983 3.604271 -1.479051 -5.626915 -27.125486 -4.199401 -0.227427 -55.797048 -4.933732 18.682431 -0.246297 -20.233418 9.412572 -8.184937 -13.369592 11.927948 29.728568 7.587051 7.595767 54.943901 2.141438 14.856443 -10.541173 25.396093 -5.032160 1.933217 12.404835 1.836492 
0.359251 0.149414 0.998539 85.148981 -0.074993 90.334798 4.882159 5.197765 5.391933 -3.785228 -0.208270 -5.431916 0.912565 9.184184 -3.553347 0.000000 -0.000000 0.000000 -5.961732 -3.948361 1.038216 2.153502 -1.685312 0.619808 4.978327 -4.731925 -6.251275 0.000000 -0.000000 0.000000 -4.465071 3.223058 -6.811338 2.184421 -2.215131 12.476993 0.133342 1.697803 -4.993222 1.063528 6.253335 4.117787 3.593159 -1.467098 -5.631864 -27.127440 -4.193644 -0.231063 -55.798252 -4.940414 18.684972 -0.236187 -20.230850 9.427411 -8.207535 -13.390470 11.915250 29.726716 7.587683 7.597026 54.949042 2.149870 14.860422 -10.540789 25.338493 -5.015869 2.062622 12.367456 1.775430 
0.359278 0.149409 0.998538 85.146513 -0.068864 90.348528 4.887442 5.201387 5.373497 -3.785458 -0.210748 -5.420385 0.919511 9.187685 -3.556468 0.000000 -0.000000 0.000000 -5.954883 -3.948284 1.030401 2.156504 -1.686095 0.610087 4.977410 -4.735098 -6.245620 0.000000 -0.000000 0.000000 -4.477693 3.219209 -6.791477 2.178424 -2.211470 12.441471 0.139094 1.696519 -4.986820 1.060837 6.242198 4.108166 3.587279 -1.452020 -5.643088 -27.129157 -4.185892 -0.239956 -55.801857 -4.937977 18.697611 -0.226419 -20.227232 9.436197 -8.235634 -13.409744 11.906154 29.726674 7.588252 7.597144 54.949686 2.147554 14.868838 -10.545900 25.285097 -4.996228 2.188119 12.344083 1.718053 
0.359330 0.149346 0.998571 85.148500 -0.057497 90.372282 4.894240 5.207393 5.381288 -3.777293 -0.236267 -5.462330 0.928665 9.196104 -3.554975 0.000000 -0.000000 0.000000 -5.937967 -3.954470 1.017124 2.163106 -1.693517 0.595555 4.956060 -4.753687 -6.272632 0.000000 -0.000000 0.000000 -4.515422 3.212250 -6.737822 2.180673 -2.203288 12.321322 0.190613 1.671918 -4.922861 1.247579 6.442209 4.175145 3.552539 -1.011690 -5.690891 -27.146436 -4.138421 -0.310078 -55.847559 -4.908480 18.714293 -0.153225 -20.217761 9.473482 -8.318535 -13.423327 11.896427 29.680000 7.586238 7.586884 54.994883 2.155771 14.954825 -10.593720 25.244635 -4.952054 2.445551 12.356281 1.553163 
0.359324 0.149330 0.998552 85.152331 -0.062865 90.384538 4.890692 5.214827 5.363351 -3.778391 -0.242159 -5.455219 0.924879 9.185676 -3.557040 0.000000 -0.000000 0.000000 -5.939941 -3.956640 0.992071 2.166010 -1.676996 0.612134 4.942151 -4.774132 -6.279761 0.000000 -0.000000 0.000000 -4.527784 3.208411 -6.722872 2.163088 -2.184510 12.289621 0.166888 1.660394 -4.894345 1.165826 6.338696 4.047209 3.511851 -1.219826 -5.597612 -27.126237 -4.142284 -0.270738 -55.845983 -4.932982 18.716596 -0.148893 -20.246744 9.471603 -8.248806 -13.426944 11.835267 29.745722 7.574205 7.621490 54.968636 2.184113 14.955622 -10.591168 25.245491 -4.937170 2.412746 12.311810 1.550834 
